<?xml version="1.0" encoding="UTF-8"?>
<svg xmlns="http://www.w3.org/2000/svg" width="151mm" height="242.4mm" version="1.1" viewBox="0 0 428 687">
  <!-- Generator: Adobe Illustrator 28.6.0, SVG Export Plug-In . SVG Version: 1.2.0 Build 709)  -->
  <g>
    <g id="Ebene_1">
      <g id="_x23_fafeffff">
        <path d="M199.4,75.6c15.8-.8,31.8-.5,47.5,1.9,24.6,3.1,48.3,11,71,20.7,12.8,5.6,25.5,11.6,37.5,18.6,4.4,2.6,8.8,5.5,11.8,9.7,2.1,3.8,2.6,8.3,2.5,12.5.3,10.7-1.3,21.4-2.2,32.1-5.5,45.4-13.8,90.5-25.6,134.7-11.1,42.4-26.5,83.5-45.1,123.1-16.1,34.2-34.5,67.5-57.1,97.9-13.3,17.8-28.5,34.1-44.9,49.1-12.2,10.8-24.5,21.9-38.5,30.3-3.3,1.7-8.2,4.2-11.4.9-4.5-5-3.5-12.2-2.8-18.3,3.6-23.4,7.6-46.7,9.6-70.3,3.3-35.8,3.2-71.8.3-107.6-3.6-45.6-11.5-90.8-23.1-134.9-5.8-21.1-11.6-42.3-20.8-62.1-5.9-13-12-25.9-18.2-38.7-6.8-14.9-15.5-28.8-22.6-43.5-1.1-2.1-1.9-4.8-.4-6.9,5.8-6.4,13.1-11.2,20.6-15.3,19.8-13.1,42.6-20.9,65.5-26.6,15.2-3.7,30.8-6.4,46.5-7.3Z" fill="#fffff8"/>
      </g>
    </g>
  </g>
</svg>